<?xml version="1.0" standalone="no"?>
<!DOCTYPE svg PUBLIC "-//W3C//DTD SVG 20010904//EN"
 "http://www.w3.org/TR/2001/REC-SVG-20010904/DTD/svg10.dtd">
<svg version="1.0" xmlns="http://www.w3.org/2000/svg"
 width="538.000000pt" height="463.000000pt" viewBox="0 0 538.000000 463.000000"
 preserveAspectRatio="xMidYMid meet">
<metadata>
Created by potrace 1.16, written by Peter Selinger 2001-2019
</metadata>
<g transform="translate(0.000000,463.000000) scale(0.100000,-0.100000)"
fill="#000000" stroke="none">
<path d="M1425 3292 c-568 -3 -503 14 -534 -134 -42 -198 -46 -242 -46 -463 1
-186 4 -237 23 -331 29 -143 48 -208 68 -224 20 -17 1009 -16 1029 0 7 6 15
21 18 33 3 12 17 67 31 122 56 216 58 535 5 798 -32 158 -45 197 -65 197 -7 0
-18 1 -26 3 -7 1 -234 1 -503 -1z m155 -181 c0 -54 1 -53 -75 -66 -81 -13
-167 -84 -206 -169 -35 -78 -38 -76 131 -76 l150 0 0 -55 0 -55 -154 0 -155 0
11 -32 c38 -111 143 -199 253 -215 l45 -6 0 -54 0 -55 -37 6 c-21 4 -69 16
-108 28 -60 19 -79 31 -141 92 -87 87 -115 150 -122 273 -7 147 45 264 159
354 49 38 156 78 212 79 l37 0 0 -49z"/>
<path d="M355 2689 c-78 -39 -125 -127 -125 -238 l0 -74 43 -41 c64 -62 147
-82 210 -51 48 24 71 62 69 113 -2 49 -15 72 -42 72 -23 0 -54 -36 -47 -55 18
-45 -52 -71 -109 -40 -27 15 -34 25 -40 61 -7 51 -2 77 26 122 59 96 186 96
281 0 65 -67 72 -94 64 -229 -10 -171 12 -207 179 -293 104 -54 140 -65 341
-106 421 -85 657 -108 1255 -120 411 -9 565 -6 905 20 72 5 168 12 215 16 154
11 460 60 645 104 232 55 373 127 417 213 19 38 20 52 15 158 -6 95 -4 124 9
155 38 92 104 143 194 151 46 4 61 1 90 -19 76 -52 106 -170 56 -217 -29 -27
-99 -39 -121 -21 -8 7 -15 27 -15 44 0 58 -52 79 -71 29 -15 -41 -2 -97 32
-129 28 -27 37 -29 103 -29 61 0 78 4 109 25 96 66 86 243 -18 341 -44 42 -84
57 -151 58 -111 2 -215 -68 -274 -185 -23 -45 -25 -59 -23 -169 1 -67 -2 -132
-8 -147 -32 -79 -188 -142 -539 -217 -268 -56 -550 -81 -1055 -91 -758 -14
-1363 26 -1780 119 -49 11 -237 66 -285 83 -57 21 -108 57 -129 92 -19 30 -20
43 -14 159 6 124 6 125 -22 174 -50 86 -82 119 -148 151 -54 27 -76 32 -133
32 -48 -1 -81 -7 -109 -21z"/>
</g>
</svg>
